<svg fill="none" height="512" viewBox="0 0 512 512" width="512" xmlns="http://www.w3.org/2000/svg"><rect fill="#000" height="512" rx="81" width="512"/><g fill="#fff"><path d="m135.665 322.331c13.185 9.03 27.213 17.432 41.701 25.128 14.627 7.635 29.575 14.856 44.416 21.51 14.841 6.7 29.759 12.526 44.339 17.539 12.725 4.37 25.236 7.85 37.378 10.273.338-.23.705-.445 1.058-.644 15.24-9.414 50.073-30.341 77.271-59.885-11.315 1.287-23.334.766-35.646-.752-14.703-1.87-29.881-5.304-45.32-9.536-15.423-4.262-31.031-9.643-46.776-15.393-15.669-5.795-31.461-12.219-47.007-19.072-15.699-6.823-31.154-14.458-45.918-22.998-14.718-8.585-28.946-17.876-41.87-28.348-9.475-7.696-18.337-15.929-26.2634-24.745-.4753 13.584-1.3339 41.886-1.2725 69.345 2.5603 2.79 5.2127 5.581 8.0337 8.279 10.6402 10.333 22.7672 20.222 35.8602 29.283z"/><path d="m136.615 220.483c10.793 10.349 23.013 20.253 36.32 29.299 13.278 9.061 27.459 17.493 42.086 25.174 14.825 7.651 29.773 14.856 44.798 21.48 14.964 6.638 30.02 12.434 44.768 17.34 14.734 4.921 29.253 8.677 43.174 10.962 13.875 2.3 27.229 2.913 38.942 1.042 1.671-.245 3.312-.582 4.891-.966 12.894-16.389 22.813-34.971 26.018-55.423.874-5.734 1.364-11.131 1.518-16.221.521-3.511 1.41-10.763 1.87-19.793-.276.353-.521.751-.767 1.119-5.795 7.681-15.898 12.679-26.523 14.519-10.717 1.901-22.2 1.38-33.975-.168-11.775-1.61-23.886-4.508-36.213-7.942-12.311-3.465-24.776-7.819-37.332-12.403-12.557-4.661-25.083-9.675-37.563-15.225-12.602-5.381-24.99-11.544-36.826-18.413-11.851-6.868-23.319-14.319-33.775-22.783-10.411-8.447-20.008-17.707-27.981-27.964-7.926-10.242-14.549-21.326-18.459-33.132-.966-2.821-1.809-5.672-2.484-8.509-13.047 16.65-23.549 38.866-29.7734 64.178 2.4834 6.976 5.9184 14.182 10.4714 21.372 6.915 11.054 15.991 22.093 26.784 32.442z"/><path d="m262.334 398.713c-15.301-4.355-30.77-9.767-46.347-15.547-15.577-5.826-31.154-12.219-46.639-19.072-15.577-6.838-30.893-14.488-45.534-23.028-10.809-6.347-21.327-13.093-31.2461-20.406.7206 14.902 2.0697 26.569 4.3695 30.847 8.9386 16.65 25.5886 33.913 26.7846 51.759 1.195 17.846 11.882 24.393 21.433 26.171 9.521 1.794 9.521 12.495 30.909 12.495 17.799 0 77.455-20.943 111.475-36.903-8.294-1.794-16.696-3.94-25.189-6.316z"/><path d="m419.114 205.152c-4.891-18.766-18.03-41.733-34.236-61.281-7.527-9.091-16.573-15.53-25.849-19.885-3.848 2.484-7.144 6.93-10.808 11.974-.353.46-.675.92-.997 1.38 1.426 1.319 2.836 2.775 4.17 4.37 2.331 2.836 4.554 6.24 6.838 9.827 2.039 3.143 5.642 8.709 7.819 10.84.123.015.23.015.307.03 3.25.307 10.809 1.028 15.684 8.555 2.177 3.343 2.79 7.482 1.702 11.315-1.196 4.17-2.944 7.359-15.577 13.246-9.122 4.293-19.072 6.44-29.621 6.44-16.404 0-34.204-5.167-54.396-15.776-6.991-3.649-12.066-8.479-16.527-12.71-2.821-2.683-5.52-5.228-8.295-7.099-1.932-1.288-3.894-2.545-5.841-3.817-10.64-6.854-22.706-14.627-30.817-27.275-6.316-9.828-9.444-25.895-1.487-37.9918.184-.2607.368-.5213.568-.782 2.805-3.7102 7.144-5.8259 11.805-5.8259 7.666 0 13.2 5.642 17.631 10.1957.23.245.46.49.644.69 2.131 1.088 6.209 1.426 9.828 1.732l.69.061c6.377.537 12.05 1.626 17.462 3.389 2.791-3.649 3.281-4.278 3.649-4.707 1.503-1.794 2.944-3.4343 4.416-5.0595-8.494-3.2349-16.681-4.9367-21.955-5.4733-11.897-1.1806-33.101-9.8122-33.101-9.8122-.874-.9352-1.395-1.4719-1.395-1.4719s-19.011-15.8528-53.17-9.5669l.092.1994s-.414.1073-1.196.3373c-.537.1226-2.79.8585-1.794.4599.046 0 .414-.4753.108-.322-.246.1074-.522.138-.859.2453-.322.184-.69.3067-1.104.5367-.337.3526-.858.5212-1.272.9658-1.733 1.6098-4.186 4.4768-5.596 9.3523-.874 2.361-1.196 5.2587-1.503 8.417-.061 3.2196.031 6.7612.828 10.5791 2.56 15.377 13.492 34.143 30.004 50.686 8.279 8.31 17.738 16.343 28.087 23.672 10.334 7.374 21.403 14.304 32.917 20.559 11.56 6.317 23.488 12.204 35.263 17.693 11.774 5.535 23.656 10.303 35.262 14.427 11.606 4.139 23.074 7.39 34.006 9.414 10.931 2.023 21.464 2.775 30.602 1.395 9.198-1.257 16.634-5.121 20.82-10.579 4.262-5.397 5.688-11.79 6.117-17.079.245-2.377.199-4.523.107-6.486z"/><path d="m354.293 178.873c-6.639-4.615-13.001-17.57-18.138-23.825-5.166-6.225-13.108-9.904-13.108-9.92.322 0 6.899-9.26 7.359-9.873 6.01-8.095 11.56-16.972 21.449-20.82 3.266-1.273 6.731-1.794 10.226-1.794 2.545 0 5.075.276 7.528.766.966.184 1.886.276 2.79.276 12.02 0 17.969-16.3431 12.082-26.2319-1.718-2.8823-5.029-5.7493-8.203-6.9759-6.562-2.5757-12.94-3.9095-19.41-3.9095-5.12 0-10.302.8279-15.638 2.5603-11.069 3.603-21.985 8.2178-31.108 15.5616-7.619 6.1484-14.442 13.3534-20.712 20.8354-.568.659-9.613 12.587-9.721 12.587-7.635-3.925-14.641-5.688-23.089-6.408-6.041-.521-12.618-.951-17.754-4.523-1.38-.951-7.252-8.11-9.873-8.11-.353 0-.614.122-.844.398-4.369 6.623-2.315 16.834 1.595 22.952 7.819 12.188 21.004 19.241 32.717 27.075 8.617 5.78 14.167 14.136 23.58 19.088 14.703 7.712 31.43 14.182 47.988 14.182 8.034 0 16.037-1.518 23.749-5.152.613-.276 8.279-4.4 8.156-4.584-2.33-3.649-7.144-1.073-11.575-4.155z"/></g></svg>