<?xml version="1.0" encoding="UTF-8"?>
<svg id="Layer_1" data-name="Layer 1" xmlns="http://www.w3.org/2000/svg" viewBox="0 0 841.89 595.28">
  <defs>
    <style>
      .cls-1 {
        fill: #fff;
      }
    </style>
  </defs>
  <path class="cls-1" d="M337,372.13v-87h15.01l.11,7.2c3.59-5.84,9.07-8.76,16.45-8.76,3.67,0,7.08.72,10.26,2.16,3.16,1.45,5.86,3.52,8.1,6.24,2.24,2.73,3.99,6.04,5.27,9.96,1.28,3.92,1.92,8.36,1.92,13.32,0,4.48-.55,8.58-1.63,12.3-1.08,3.72-2.66,6.94-4.73,9.67-2.09,2.72-4.63,4.82-7.62,6.3-3.01,1.47-6.43,2.22-10.27,2.22-7.28,0-13.11-3.09-17.52-9.24v35.64h-15.37ZM364.85,332.41c8.96,0,13.44-6.08,13.44-18.25,0-5.27-1.23-9.57-3.72-12.89-2.47-3.33-5.68-4.98-9.6-4.98s-6.9,1.55-9.42,4.67c-2.51,3.12-3.79,7.2-3.79,12.24,0,12.8,4.37,19.21,13.09,19.21Z"/>
  <path class="cls-1" d="M399.54,344.17v-59.04h15.6v59.04h-15.6Z"/>
  <path class="cls-1" d="M490.98,344.17v-35.77c0-3.6-.85-6.52-2.53-8.75-1.68-2.25-3.91-3.36-6.72-3.36s-5.26,1.19-7.13,3.6c-1.9,2.39-2.82,5.4-2.82,9v35.28h-15.61v-35.52c0-2.39-.16-4.36-.47-5.88-.32-1.52-.87-2.72-1.64-3.6-.76-.88-1.73-1.5-2.92-1.86-1.2-.36-2.65-.53-4.32-.53-6.33,0-9.49,3.83-9.49,11.51v35.88h-15.6v-59.04h14.65v8.64c1.99-3.92,4.4-6.6,7.2-8.04,2.8-1.44,6.15-2.16,10.09-2.16,1.99,0,3.78.16,5.33.48,1.57.33,2.95.86,4.2,1.62,1.23.76,2.41,1.74,3.53,2.94,1.11,1.2,2.24,2.65,3.36,4.33,1.6-3.29,3.73-5.67,6.35-7.15,2.65-1.47,5.86-2.22,9.62-2.22,2.96,0,5.68.51,8.15,1.5,2.47,1,4.6,2.4,6.36,4.2,1.76,1.8,3.14,3.9,4.13,6.3,1,2.4,1.51,4.96,1.51,7.68v40.92h-15.25Z"/>
  <path class="cls-1" d="M526.73,318.73c.24,4.48,1.54,8.04,3.9,10.68,2.37,2.64,5.46,3.96,9.3,3.96,2.56,0,4.82-.58,6.78-1.74,1.97-1.16,3.22-2.78,3.78-4.86h16.08c-1.84,6.07-5.05,10.76-9.6,14.03-4.55,3.29-10.01,4.93-16.32,4.93-19.69,0-29.52-10.73-29.52-32.16,0-4.56.64-8.68,1.92-12.37,1.28-3.67,3.12-6.84,5.57-9.48,2.45-2.64,5.42-4.65,8.94-6.06,3.52-1.4,7.57-2.1,12.13-2.1,9.12,0,16.01,2.93,20.7,8.76,4.67,5.84,7.02,14.64,7.02,26.4h-40.68ZM551.34,308.89c-.1-2.16-.48-4.06-1.15-5.7-.68-1.64-1.57-3-2.7-4.08-1.11-1.08-2.4-1.88-3.84-2.4-1.44-.52-2.92-.78-4.45-.78-3.12,0-5.82,1.14-8.09,3.42-2.29,2.28-3.59,5.46-3.9,9.54h24.12Z"/>
  <path class="cls-1" d="M610.02,344.17v-35.77c0-4.56-.77-7.63-2.27-9.23-1.52-1.59-4.13-2.39-7.81-2.39-8.09,0-12.12,4.51-12.12,13.55v33.84h-15.59v-59.04h14.87v8.64c1.84-3.36,4.28-5.9,7.33-7.62,3.04-1.73,6.96-2.58,11.76-2.58,2.79,0,5.4.42,7.8,1.26,2.4.84,4.47,2.1,6.19,3.78,1.71,1.68,3.07,3.74,4.07,6.18,1,2.44,1.51,5.26,1.51,8.46v40.92h-15.72Z"/>
  <path class="cls-1" d="M665.47,305.29h14.52v16.8c0,3.12-.46,6.1-1.37,8.95-.92,2.84-2.37,5.34-4.33,7.55-1.96,2.2-4.44,3.94-7.43,5.22-3.01,1.28-6.6,1.92-10.75,1.92s-8-.64-11.03-1.92c-3.05-1.28-5.55-3.01-7.51-5.16-1.97-2.16-3.38-4.68-4.26-7.56-.88-2.88-1.32-5.92-1.32-9.12v-52.81h15.37v15.96h32.64v11.04h-32.64v24.24c0,3.77.7,6.67,2.09,8.7,1.41,2.04,3.71,3.06,6.91,3.06s5.41-.99,6.9-2.99c1.48-2,2.23-4.85,2.23-8.53v-15.36Z"/>
  <path class="cls-1" d="M714.66,345.74c-4.79,0-9.07-.77-12.84-2.29-3.75-1.52-6.94-3.64-9.53-6.35-2.62-2.71-4.59-6-5.95-9.84-1.37-3.84-2.04-8.04-2.04-12.6s.7-8.88,2.11-12.72c1.39-3.84,3.41-7.12,6.06-9.84,2.63-2.71,5.81-4.82,9.53-6.3,3.72-1.47,7.95-2.22,12.66-2.22s8.81.74,12.49,2.22c3.68,1.48,6.81,3.56,9.42,6.24,2.59,2.69,4.6,5.94,6,9.79,1.4,3.83,2.1,8.12,2.1,12.84s-.7,8.98-2.1,12.78c-1.4,3.8-3.4,7.05-6,9.78-2.61,2.72-5.76,4.82-9.49,6.3-3.71,1.47-7.86,2.22-12.43,2.22ZM714.66,332.65c9.54,0,14.29-6,14.29-18s-4.75-17.88-14.29-17.88-14.28,5.96-14.28,17.88,4.77,18,14.28,18Z"/>
  <path class="cls-1" d="M125.86,341.19c8.6,5.89,17.75,11.37,27.2,16.39,9.54,4.98,19.29,9.69,28.97,14.03,9.68,4.37,19.41,8.17,28.92,11.44,8.3,2.85,16.46,5.12,24.38,6.7.22-.15.46-.29.69-.42,9.94-6.14,32.66-19.79,50.4-39.06-7.38.84-15.22.5-23.25-.49-9.59-1.22-19.49-3.46-29.56-6.22-10.06-2.78-20.24-6.29-30.51-10.04-10.22-3.78-20.52-7.97-30.66-12.44-10.24-4.45-20.32-9.43-29.95-15-9.6-5.6-18.88-11.66-27.31-18.49-6.18-5.02-11.96-10.39-17.13-16.14-.31,8.86-.87,27.32-.83,45.23,1.67,1.82,3.4,3.64,5.24,5.4,6.94,6.74,14.85,13.19,23.39,19.1Z"/>
  <path class="cls-1" d="M126.48,274.76c7.04,6.75,15.01,13.21,23.69,19.11,8.66,5.91,17.91,11.41,27.45,16.42,9.67,4.99,19.42,9.69,29.22,14.01,9.76,4.33,19.58,8.11,29.2,11.31,9.61,3.21,19.08,5.66,28.16,7.15,9.05,1.5,17.76,1.9,25.4.68,1.09-.16,2.16-.38,3.19-.63,8.41-10.69,14.88-22.81,16.97-36.15.57-3.74.89-7.26.99-10.58.34-2.29.92-7.02,1.22-12.91-.18.23-.34.49-.5.73-3.78,5.01-10.37,8.27-17.3,9.47-6.99,1.24-14.48.9-22.16-.11-7.68-1.05-15.58-2.94-23.62-5.18-8.03-2.26-16.16-5.1-24.35-8.09-8.19-3.04-16.36-6.31-24.5-9.93-8.22-3.51-16.3-7.53-24.02-12.01-7.73-4.48-15.21-9.34-22.03-14.86-6.79-5.51-13.05-11.55-18.25-18.24-5.17-6.68-9.49-13.91-12.04-21.61-.63-1.84-1.18-3.7-1.62-5.55-8.51,10.86-15.36,25.35-19.42,41.86,1.62,4.55,3.86,9.25,6.83,13.94,4.51,7.21,10.43,14.41,17.47,21.16Z"/>
  <path class="cls-1" d="M208.48,391.01c-9.98-2.84-20.07-6.37-30.23-10.14-10.16-3.8-20.32-7.97-30.42-12.44-10.16-4.46-20.15-9.45-29.7-15.02-7.05-4.14-13.91-8.54-20.38-13.31.47,9.72,1.35,17.33,2.85,20.12,5.83,10.86,16.69,22.12,17.47,33.76.78,11.64,7.75,15.91,13.98,17.07,6.21,1.17,6.21,8.15,20.16,8.15,11.61,0,50.52-13.66,72.71-24.07-5.41-1.17-10.89-2.57-16.43-4.12Z"/>
  <path class="cls-1" d="M310.74,264.76c-3.19-12.24-11.76-27.22-22.33-39.97-4.91-5.93-10.81-10.13-16.86-12.97-2.51,1.62-4.66,4.52-7.05,7.81-.23.3-.44.6-.65.9.93.86,1.85,1.81,2.72,2.85,1.52,1.85,2.97,4.07,4.46,6.41,1.33,2.05,3.68,5.68,5.1,7.07.08.01.15.01.2.02,2.12.2,7.05.67,10.23,5.58,1.42,2.18,1.82,4.88,1.11,7.38-.78,2.72-1.92,4.8-10.16,8.64-5.95,2.8-12.44,4.2-19.32,4.2-10.7,0-22.31-3.37-35.48-10.29-4.56-2.38-7.87-5.53-10.78-8.29-1.84-1.75-3.6-3.41-5.41-4.63-1.26-.84-2.54-1.66-3.81-2.49-6.94-4.47-14.81-9.54-20.1-17.79-4.12-6.41-6.16-16.89-.97-24.78.12-.17.24-.34.37-.51,1.83-2.42,4.66-3.8,7.7-3.8h0c5,0,8.61,3.68,11.5,6.65.15.16.3.32.42.45,1.39.71,4.05.93,6.41,1.13l.45.04c4.16.35,7.86,1.06,11.39,2.21,1.82-2.38,2.14-2.79,2.38-3.07.98-1.17,1.92-2.24,2.88-3.3-5.54-2.11-10.88-3.22-14.32-3.57-7.76-.77-21.59-6.4-21.59-6.4h0c-.57-.61-.91-.96-.91-.96,0,0-12.4-10.34-34.68-6.24l.06.13s-.27.07-.78.22c-.35.08-1.82.56-1.17.3.03,0,.27-.31.07-.21-.16.07-.34.09-.56.16-.21.12-.45.2-.72.35-.22.23-.56.34-.83.63-1.13,1.05-2.73,2.92-3.65,6.1-.57,1.54-.78,3.43-.98,5.49-.04,2.1.02,4.41.54,6.9,1.67,10.03,8.8,22.27,19.57,33.06,5.4,5.42,11.57,10.66,18.32,15.44,6.74,4.81,13.96,9.33,21.47,13.41,7.54,4.12,15.32,7.96,23,11.54,7.68,3.61,15.43,6.72,23,9.41,7.57,2.7,15.05,4.82,22.18,6.14,7.13,1.32,14,1.81,19.96.91,6-.82,10.85-3.34,13.58-6.9,2.78-3.52,3.71-7.69,3.99-11.14.16-1.55.13-2.95.07-4.23Z"/>
  <path class="cls-1" d="M268.46,247.62c-4.33-3.01-8.48-11.46-11.83-15.54-3.37-4.06-8.55-6.46-8.55-6.47h0c.21,0,4.5-6.04,4.8-6.44,3.92-5.28,7.54-11.07,13.99-13.58,2.13-.83,4.39-1.17,6.67-1.17,1.66,0,3.31.18,4.91.5.63.12,1.23.18,1.82.18,7.84,0,11.72-10.66,7.88-17.11-1.12-1.88-3.28-3.75-5.35-4.55-4.28-1.68-8.44-2.55-12.66-2.55-3.34,0-6.72.54-10.2,1.67-7.22,2.35-14.34,5.36-20.29,10.15-4.97,4.01-9.42,8.71-13.51,13.59-.37.43-6.27,8.21-6.34,8.21-4.98-2.56-9.55-3.71-15.06-4.18-3.94-.34-8.23-.62-11.58-2.95-.9-.62-4.73-5.29-6.44-5.29-.23,0-.4.08-.55.26-2.85,4.32-1.51,10.98,1.04,14.97,5.1,7.95,13.7,12.55,21.34,17.66,5.62,3.77,9.24,9.22,15.38,12.45,9.59,5.03,20.5,9.25,31.3,9.25,5.24,0,10.46-.99,15.49-3.36.4-.18,5.4-2.87,5.32-2.99-1.52-2.38-4.66-.7-7.55-2.71Z"/>
  <rect class="cls-1" x="399.54" y="263.53" width="15.6" height="14.52"/>
</svg>